# AST/ASF file generated using VICON BodyLanguage
# -----------------------------------------------
:version 1.10
:name VICON
:units
  mass 1.0
  length 0.45
  angle deg
:documentation
   .ast/.asf automatically generated from VICON data using
   VICON BodyBuilder and BodyLanguage model FoxedUp or BRILLIANT.MOD
:root
   order TX TY TZ RX RY RZ
   axis XYZ
   position 0 0 0  
   orientation 0 0 0 
:bonedata
  begin
     id 1 
     name lhipjoint
     direction 0.734343 -0.627749 0.258209 
     length 2.5437 
     axis 0 0 0  XYZ
  end
  begin
     id 2 
     name lfemur
     direction 0.34202 -0.939693 0  
     length 6.7391  
     axis 0 0 20  XYZ
    dof rx ry rz
    limits (-160.0 20.0)
           (-70.0 70.0)
           (-60.0 70.0)
  end
  begin
     id 3 
     name ltibia
     direction 0.34202 -0.939693 0   
     length 7.21536   
     axis 0 0 20   XYZ
    dof rx
    limits (-10.0 170.0)
  end
  begin
     id 4 
     name lfoot
     direction 0.0489572 -0.134509 0.989702   
     length 1.61313   
     axis -90 7.62852e-016 20   XYZ
    dof rx rz
    limits (-45.0 90.0)
           (-70.0 20.0)
  end
  begin
     id 5 
     name ltoes
     direction 1.53451e-011 -4.21692e-011 1   
     length 0.823104   
     axis -90 7.62852e-016 20   XYZ
    dof rx
    limits (-90.0 20.0)
  end
  begin
     id 6 
     name rhipjoint
     direction -0.746398 -0.615468 0.253157   
     length 2.59446  
     axis 0 0 0  XYZ 
  end
  begin
     id 7 
     name rfemur
     direction -0.34202 -0.939693 0   
     length 6.7075   
     axis 0 0 -20   XYZ
    dof rx ry rz
    limits (-160.0 20.0)
           (-70.0 70.0)
           (-70.0 60.0)
  end
  begin
     id 8 
     name rtibia
     direction -0.34202 -0.939693 0   
     length 7.27262   
     axis 0 0 -20   XYZ
    dof rx
    limits (-10.0 170.0)
 end
 begin
     id 9 
     name rfoot
     direction -0.0455203 -0.125066 0.991104   
     length 1.91095  
     axis -90 -7.62852e-016 -20   XYZ
    dof rx rz
    limits (-45.0 90.0)
           (-20.0 70.0)
  end
  begin
     id 10 
     name rtoes
     direction -1.53601e-011 -4.21913e-011 1   
     length 0.969037   
     axis -90 -7.62852e-016 -20   XYZ
    dof rx
    limits (-90.0 20.0)
  end
  begin
     id 11 
     name lowerback
     direction 0.0181546 0.999122 -0.0377542   
     length 1.99916   
     axis 0 0 0   XYZ
    dof rx ry rz
    limits (-20.0 45.0)
           (-30.0 30.0)
           (-30.0 30.0)
  end
  begin
     id 12 
     name upperback
     direction 0.0203486 0.99589 0.0882534   
     length 1.951   
     axis 0 0 0   XYZ
    dof rx ry rz
    limits (-20.0 45.0)
           (-30.0 30.0)
           (-30.0 30.0)
  end
  begin
     id 13 
     name thorax
     direction 0.0131685 0.994241 0.106355   
     length 1.97461   
     axis 0 0 0   XYZ
    dof rx ry rz
    limits (-20.0 45.0)
           (-30.0 30.0)
           (-30.0 30.0)
  end
  begin
     id 14 
     name lowerneck
     direction -0.0281395 0.999325 0.023617   
     length 1.7959   
     axis 0 0 0   XYZ
    dof rx ry rz
    limits (-20.0 45.0)
           (-30.0 30.0)
           (-30.0 30.0)
  end
  begin
     id 15 
     name upperneck
     direction 0.0288721 0.991984 -0.123019   
     length 1.79917   
     axis 0 0 0   XYZ
    dof rx ry rz
    limits (-20.0 45.0)
           (-30.0 30.0)
           (-30.0 30.0)
  end
  begin
     id 16
     name head
     direction 0.0133797 0.998944 -0.0439492  
     length 1.80902  
     axis 0 0 0   XYZ
    dof rx ry rz
    limits (-20.0 45.0)
           (-30.0 30.0)
           (-30.0 30.0)
  end
  begin
     id 17 
     name lclavicle
     direction 0.919195 0.377107 0.113449  
     length 3.17815  
     axis 0 0 0   XYZ
    dof ry rz
    limits (-20.0 10.0)
           (0.0 20.0)
  end
  begin
     id 18 
     name lhumerus
     direction 1 -4.48959e-011 2.13129e-027   
     length 4.84137   
     axis 180 -30 -90   XYZ
    dof rx ry rz
    limits (-60.0 90.0)
           (-90.0 90.0)
           (-90.0 90.0)
  end
  begin
     id 19
     name lradius
     direction 1 -4.48957e-011 -6.30627e-028   
     length 3.2452   
     axis 180 -30 -90   XYZ
    dof rx
    limits (-10.0 170.0)
  end
  begin
     id 20
     name lwrist
     direction 1 -4.4901e-011 9.13299e-027   
     length 1.6226   
     axis -6.84618e-015 90 90   XYZ
    dof ry
    limits (-180.0 0.0)
 end
  begin
     id 21 
     name lhand
     direction 1 -4.48816e-011 1.82293e-026   
     length 0.521221   
     axis -1.16502e-014 90 90   XYZ
    dof rx rz
    limits (-90.0 90.0)
           (-45.0 45.0)
  end
  begin
     id 22 
     name lfingers
     direction 1 -4.49108e-011 3.65687e-026   
     length 0.420221   
     axis -2.33008e-014 90 90   XYZ
    dof rx
    limits (0.0 90.0)
  end
  begin
     id 23
     name lthumb
     direction 0.707107 -6.34943e-011 0.707107   
     length 0.603356   
     axis -90 45 5.69224e-014   XYZ
    dof rx rz
    limits (-45.0 45.0)
           (-45.0 45.0)
  end
  begin
     id 24 
     name rclavicle
     direction -0.90847 0.38596 0.160368   
     length 3.12973  
     axis 0 0 0   XYZ 
    dof ry rz
    limits (-10.0 20.0)
           (-20.0 0.0)
  end
  begin
     id 25 
     name rhumerus
     direction -1 -4.48974e-011 4.47268e-028  
     length 4.72284   
     axis 180 30 90   XYZ
    dof rx ry rz
    limits (-90.0 60.0)
           (-90.0 90.0)
           (-90.0 90.0)
  end
  begin
     id 26 
     name rradius
     direction -1 -4.48969e-011 3.43203e-027   
     length 3.23459   
     axis 180 30 90   XYZ
    dof rx
    limits (-10.0 170.0)
  end
  begin
     id 27 
     name rwrist
     direction -1 -4.48969e-011 9.12911e-027   
     length 1.6173   
     axis -6.84618e-015 -90 -90   XYZ
    dof ry
    limits (-180.0 0.0)
  end
  begin
     id 28
     name rhand
     direction -1 -4.49194e-011 1.83006e-026   
     length 0.307416   
     axis -1.16502e-014 -90 -90   XYZ
    dof rx rz
    limits (-90.0 90.0)
           (-45.0 45.0)
  end
  begin
     id 29
     name rfingers
     direction -1 -4.48423e-011 3.63103e-026   
     length 0.247847   
     axis -2.33008e-014 -90 -90   XYZ
    dof rx
    limits (0.0 90.0)
  end
  begin
     id 30
     name rthumb
     direction -0.707107 -6.34802e-011 0.707107   
     length 0.35586   
     axis -90 -45 -5.69224e-014   XYZ
    dof rx rz
    limits (-45.0 45.0)
           (-45.0 45.0)
  end
:hierarchy
  begin
    root lhipjoint rhipjoint lowerback
    lhipjoint lfemur
    lfemur ltibia
    ltibia lfoot
    lfoot ltoes
    rhipjoint rfemur
    rfemur rtibia
    rtibia rfoot
    rfoot rtoes
    lowerback upperback
    upperback thorax
    thorax lowerneck lclavicle rclavicle
    lowerneck upperneck
    upperneck head
    lclavicle lhumerus
    lhumerus lradius
    lradius lwrist
    lwrist lhand lthumb
    lhand lfingers
    rclavicle rhumerus
    rhumerus rradius
    rradius rwrist
    rwrist rhand rthumb
    rhand rfingers
  end

#!OML:ASF H:\Terrain\Patient Classification 1\Animal1\Tuesday\Animal1.ASF
:FULLY-SPECIFIED
:DEGREES
953
root 8.317 16.8701 -2.945 9.35924 0.428026 1.62802
lowerback -2.22207 -1.09364 0.92233
upperback 5.61376 -1.51793 -0.0134716
thorax 7.06777 -0.696739 -0.656209
lowerneck -7.36876 -1.59137 -9.95949
upperneck 14.5775 0.26819 -7.28054
head 5.71087 -0.916446 -0.656253
rclavicle 9.14409e-015 -4.17448e-015
rhumerus 12.6265 -20.8983 -28.542
rradius 68.8036
rwrist -61.3804
rhand -25.9223 39.681
rfingers 7.12502
rthumb 0.62081 9.70211
lclavicle 9.14409e-015 -4.17448e-015
lhumerus -4.17218 -25.5944 29.3138
lradius 86.3494
lwrist 12.4656
lhand -0.983451 42.4879
lfingers 7.12502
lthumb 24.6481 70.9207
rfemur -17.0187 16.2335 19.3933
rtibia 20.7454
rfoot -14.5647 -37.2679
rtoes 25.7496
lfemur -12.8699 -14.7783 -15.1434
ltibia 10.6035
lfoot -7.70412 23.9252
ltoes 3.08552
954
root 8.31276 16.8694 -2.94625 9.3446 0.469319 1.4435
lowerback -2.23473 -1.1032 1.14826
upperback 5.63975 -1.54589 0.0114968
thorax 7.09767 -0.698414 -0.759432
lowerneck -7.50889 -1.38919 -9.84468
upperneck 14.715 0.546242 -7.19908
head 5.77364 -0.781321 -0.630411
rclavicle -1.2921e-014 5.96354e-016
rhumerus 12.6147 -22.5389 -28.8335
rradius 67.7996
rwrist -61.1853
rhand -25.6206 39.5665
rfingers 7.12502
rthumb 0.912141 9.58872
lclavicle -1.2921e-014 5.96354e-016
lhumerus -4.40874 -22.9064 29.4849
lradius 84.7543
lwrist 12.2367
lhand -1.06401 41.7133
lfingers 7.12502
lthumb 24.5709 70.1565
rfemur -17.0396 16.1366 19.6316
rtibia 20.819
rfoot -15.0246 -37.0834
rtoes 26.4248
lfemur -12.7706 -14.7554 -14.9138
ltibia 10.4126
lfoot -7.55641 23.9349
ltoes 2.47612
955
root 8.30935 16.8701 -2.94475 9.29118 0.533812 1.54767
lowerback -2.23736 -1.12331 1.09813
upperback 5.66683 -1.56721 -0.0351942
thorax 7.12771 -0.709848 -0.78234
lowerneck -7.58603 -1.20933 -9.59923
upperneck 14.7871 0.787732 -7.29171
head 5.80591 -0.663755 -0.68164
rclavicle -4.82053e-015 2.98177e-015
rhumerus 12.5163 -24.0685 -29.0329
rradius 66.9534
rwrist -61.113
rhand -25.7131 39.3108
rfingers 7.12502
rthumb 0.822797 9.3326
lclavicle -4.82053e-015 2.98177e-015
lhumerus -4.6105 -20.0053 29.741
lradius 83.2155
lwrist 11.8774
lhand -1.12915 41.3462
lfingers 7.12502
lthumb 24.5084 69.7979
rfemur -17.0273 15.8121 19.5823
rtibia 20.9595
rfoot -15.2895 -36.7914
rtoes 26.6522
lfemur -12.5778 -14.8448 -15.0341
ltibia 10.0993
lfoot -6.83759 24.0477
ltoes -0.0444141
956
root 8.30416 16.8745 -2.94009 9.27428 0.588132 1.82192
lowerback -2.26477 -1.09635 0.841027
upperback 5.6937 -1.51332 -0.084064
thorax 7.17838 -0.69559 -0.686145
lowerneck -7.62931 -1.0859 -9.44109
upperneck 14.7373 0.950159 -7.39084
head 5.79576 -0.58139 -0.725849
rclavicle 2.98177e-015 1.78906e-015
rhumerus 12.2643 -25.6002 -29.0127
rradius 66.187
rwrist -61.1948
rhand -25.9476 39.3622
rfingers 7.12502
rthumb 0.596363 9.38324
lclavicle 2.98177e-015 1.78906e-015
lhumerus -4.8968 -17.0889 30.1672
lradius 81.9204
lwrist 11.208
lhand -2.13093 41.2061
lfingers 7.12502
lthumb 23.5478 69.7845
rfemur -17.0886 15.6438 19.3235
rtibia 21.1196
rfoot -14.7866 -36.9262
rtoes 25.9276
lfemur -12.4144 -14.9261 -15.3408
ltibia 9.81589
lfoot -6.41793 24.0823
ltoes -1.44082
957
root 8.29662 16.8789 -2.93858 9.2341 0.593039 1.99211
lowerback -2.19835 -1.00969 0.684054
upperback 5.73559 -1.38803 -0.0756038
thorax 7.19044 -0.642785 -0.578188
lowerneck -7.79247 -1.01679 -9.50388
upperneck 14.8132 1.08363 -7.39368
head 5.84791 -0.528123 -0.70845
rclavicle 9.93923e-016 2.18663e-015
rhumerus 11.9653 -27.2398 -28.8548
rradius 65.3197
rwrist -61.0697
rhand -25.6532 39.9328
rfingers 7.12502
rthumb 0.880731 9.95491
lclavicle 9.93923e-016 2.18663e-015
lhumerus -4.94358 -14.2655 30.5628
lradius 80.6246
lwrist 10.8076
lhand -2.42773 41.7281
lfingers 7.12502
lthumb 23.2631 70.3428
rfemur -17.1851 15.6876 19.1581
rtibia 21.2862
rfoot -14.2318 -37.2263
rtoes 25.6454
lfemur -12.2324 -14.9347 -15.5186
ltibia 9.56004
lfoot -6.29498 24.1337
ltoes -1.93034
958
root 8.28956 16.878 -2.94192 9.17373 0.612022 1.94476
lowerback -2.07814 -0.944991 0.742788
upperback 5.77143 -1.307 -0.0247264
thorax 7.16002 -0.601327 -0.549231
lowerneck -8.04494 -0.949804 -9.61852
upperneck 15.0191 1.23098 -7.29781
head 5.95606 -0.47389 -0.651614
rclavicle 1.0635e-014 -8.34896e-015
rhumerus 11.6999 -28.8072 -28.7413
rradius 64.4873
rwrist -61.0324
rhand -24.8059 39.9124
rfingers 7.12502
rthumb 1.69903 9.93945
lclavicle 1.0635e-014 -8.34896e-015
lhumerus -4.80639 -11.2156 30.9521
lradius 79.2279
lwrist 10.4676
lhand -1.22499 43.5724
lfingers 7.12502
lthumb 24.4165 72.0366
rfemur -17.2217 15.6579 19.256
rtibia 21.4378
rfoot -14.1757 -37.2406
rtoes 25.5984
lfemur -12.0781 -14.9136 -15.4373
ltibia 9.38754
lfoot -6.59113 24.1016
ltoes -0.785684
959
root 8.28464 16.8743 -2.94355 9.19897 0.668102 1.98289
lowerback -2.10676 -0.966779 0.743871
upperback 5.77698 -1.33583 -0.0356023
thorax 7.18194 -0.614933 -0.564192
lowerneck -8.20582 -0.834596 -9.73702
upperneck 15.2112 1.41163 -7.08902
head 6.04151 -0.392938 -0.5547
rclavicle 1.18277e-014 -2.98177e-015
rhumerus 11.4723 -30.1476 -28.8005
rradius 63.8418
rwrist -61.1576
rhand -24.7863 39.7702
rfingers 7.12502
rthumb 1.71793 9.79735
lclavicle 1.18277e-014 -2.98177e-015
lhumerus -4.85425 -7.82816 31.3745
lradius 77.828
lwrist 9.77592
lhand -0.613766 44.7218
lfingers 7.12502
lthumb 25.0024 73.1057
rfemur -17.2454 15.4415 19.2632
rtibia 21.4907
rfoot -14.2849 -37.043
rtoes 25.2047
lfemur -12.1971 -14.942 -15.4391
ltibia 9.57491
lfoot -7.10588 24.0232
ltoes 0.890858
960
root 8.27912 16.8734 -2.94476 9.24485 0.764248 2.01356
lowerback -2.16052 -1.02976 0.76898
upperback 5.75621 -1.42116 -0.0488783
thorax 7.18885 -0.655083 -0.599985
lowerneck -8.25879 -0.65661 -9.80971
upperneck 15.3714 1.65851 -6.92115
head 6.09693 -0.276248 -0.471861
rclavicle 6.36111e-015 -2.18663e-015
rhumerus 11.3318 -31.339 -28.9863
rradius 63.2022
rwrist -61.0371
rhand -25.6624 40.2705
rfingers 7.12502
rthumb 0.871764 10.2926
lclavicle 6.36111e-015 -2.18663e-015
lhumerus -4.98076 -4.41337 31.6912
lradius 76.4906
lwrist 9.23519
lhand 0.00867894 45.3551
lfingers 7.12502
lthumb 25.5987 73.6547
rfemur -17.2587 15.1863 19.2819
rtibia 21.4378
rfoot -13.9663 -36.9707
rtoes 24.6457
lfemur -12.5067 -15.0083 -15.4269
ltibia 10.0207
lfoot -7.24808 23.9668
ltoes 1.02275
961
root 8.27192 16.8717 -2.94877 9.21667 0.825693 1.83466
lowerback -2.05679 -1.04354 0.939023
upperback 5.71689 -1.45158 0.00959906
thorax 7.08352 -0.663304 -0.63376
lowerneck -8.36588 -0.450122 -9.71995
upperneck 15.6112 1.94831 -6.8342
head 6.18705 -0.141518 -0.437102
rclavicle 1.80894e-014 -5.56597e-015
rhumerus 11.1819 -32.4357 -29.0982
rradius 62.5002
rwrist -60.7631
rhand -25.7525 40.7654
rfingers 7.12502
rthumb 0.784816 10.7871
lclavicle 1.80894e-014 -5.56597e-015
lhumerus -4.98106 -1.16208 31.7881
lradius 75.1349
lwrist 9.14267
lhand -3.05506 42.718
lfingers 7.12502
lthumb 22.6611 71.4076
rfemur -17.216 15.1228 19.5361
rtibia 21.3687
rfoot -13.6309 -37.0184
rtoes 24.4313
lfemur -12.7135 -15.0028 -15.1937
ltibia 10.4081
lfoot -7.32049 23.8618
ltoes 0.826428
962
root 8.26562 16.8672 -2.95086 9.09909 0.805233 1.76514
lowerback -1.88073 -1.00204 0.963695
upperback 5.72436 -1.39746 0.0458672
thorax 6.99052 -0.637158 -0.601779
lowerneck -8.47639 -0.263664 -9.57557
upperneck 15.7836 2.20134 -6.77364
head 6.25695 -0.0191044 -0.421465
rclavicle -3.67752e-015 2.18663e-015
rhumerus 10.8336 -33.3534 -28.918
rradius 61.9448
rwrist -60.6489
rhand -25.5976 40.84
rfingers 7.12502
rthumb 0.934419 10.8623
lclavicle -3.67752e-015 2.18663e-015
lhumerus -4.97119 1.88631 31.6927
lradius 73.8907
lwrist 9.27062
lhand -3.89608 42.4681
lfingers 7.12502
lthumb 21.8537 71.254
rfemur -17.048 15.2065 19.666
rtibia 21.2937
rfoot -13.7743 -36.9778
rtoes 24.6143
lfemur -12.7695 -15.128 -15.0914
ltibia 10.7609
lfoot -7.7185 23.9075
ltoes 1.19505
963
root 8.26145 16.8643 -2.95115 8.9642 0.789577 1.71554
lowerback -1.7557 -1.00017 1.02514
upperback 5.77245 -1.39843 0.0680848
thorax 6.96864 -0.635019 -0.611044
lowerneck -8.56264 -0.0988849 -9.58636
upperneck 15.8367 2.42902 -6.68884
head 6.2845 0.0914649 -0.374903
rclavicle 1.22253e-014 -4.96962e-015
rhumerus 10.45 -33.9294 -28.6312
rradius 61.5843
rwrist -60.5214
rhand -26.6372 40.4976
rfingers 7.12502
rthumb -0.0696787 10.5179
lclavicle 1.22253e-014 -4.96962e-015
lhumerus -5.03722 4.87418 31.5965
lradius 72.7594
lwrist 9.49098
lhand -3.56994 44.3018
lfingers 7.12502
lthumb 22.1669 73.0509
rfemur -16.852 15.279 19.7649
rtibia 21.2263
rfoot -14.0152 -36.9214
rtoes 24.978
lfemur -12.7439 -15.2236 -15.0425
ltibia 11.0281
lfoot -8.24768 23.9221
ltoes 2.26217
964
root 8.25492 16.8619 -2.95207 8.90467 0.794567 1.61727
lowerback -1.69798 -1.04543 1.14545
upperback 5.79641 -1.46658 0.0960985
thorax 6.95764 -0.662908 -0.65338
lowerneck -8.77467 0.0811222 -9.58768
upperneck 15.9671 2.71222 -6.67707
head 6.35988 0.215974 -0.348536
rclavicle -6.85807e-015 2.5842e-015
rhumerus 10.6389 -34.8703 -28.8535
rradius 60.7257
rwrist -60.2285
rhand -28.0055 41.245
rfingers 7.12502
rthumb -1.39124 11.2697
lclavicle -6.85807e-015 2.5842e-015
lhumerus -5.11737 7.86997 31.5274
lradius 71.6176
lwrist 9.8766
lhand -3.98699 45.5291
lfingers 7.12502
lthumb 21.7665 74.3252
rfemur -16.7863 15.2619 19.9124
rtibia 21.2096
rfoot -14.1206 -36.8431
rtoes 25.2401
lfemur -12.716 -15.1852 -14.9308
ltibia 11.0832
lfoot -8.27989 23.8864
ltoes 2.98402
